<svg class="animated" id="freepik_stories-jazz-trumpet" xmlns="http://www.w3.org/2000/svg" viewBox="0 0 500 500" version="1.1" xmlns:xlink="http://www.w3.org/1999/xlink" xmlns:svgjs="http://svgjs.com/svgjs"><style>svg#freepik_stories-jazz-trumpet:not(.animated) .animable {opacity: 0;}svg#freepik_stories-jazz-trumpet.animated #freepik--Circles--inject-7 {animation: 3s Infinite  linear heartbeat;animation-delay: 0s;}svg#freepik_stories-jazz-trumpet.animated #freepik--Lines--inject-7 {animation: 1.5s Infinite  linear floating;animation-delay: 0s;}            @keyframes heartbeat {                0% {                    transform: scale(1);                }                10% {                    transform: scale(1.1);                }                30% {                    transform: scale(1);                }                40% {                    transform: scale(1);                }                50% {                    transform: scale(1.1);                }                60% {                    transform: scale(1);                }                100% {                    transform: scale(1);                }            }                    @keyframes floating {                0% {                    opacity: 1;                    transform: translateY(0px);                }                50% {                    transform: translateY(-10px);                }                100% {                    opacity: 1;                    transform: translateY(0px);                }            }        </style><g id="freepik--background-simple--inject-7" class="animable" style="transform-origin: 242.816px 257.233px;"><path d="M475.82,251.07C470.63,295,450.59,346,410.55,369.47c-60.49,35.44-55.43,89.95-173.5,113.64a243,243,0,0,1-52.35,4.95A202.65,202.65,0,0,1,159,486C84,475,33.46,422.84,14.94,359.87c-24.39-82.81,24.3-137,56.57-169.68S127.41,55.74,243.3,31.54a235.45,235.45,0,0,1,53.8-5.11c41.24,1,86.21,14.55,117.33,42.81q3.51,3.18,6.82,6.59C464.51,120.23,482.89,191.22,475.82,251.07Z" style="fill: #00FF88; transform-origin: 242.816px 257.233px;" id="elehy1fk5993" class="animable"></path><g id="elisy2ueutwnm"><path d="M475.82,251.07C470.63,295,450.59,346,410.55,369.47c-60.49,35.44-55.43,89.95-173.5,113.64a243,243,0,0,1-52.35,4.95A202.65,202.65,0,0,1,159,486C84,475,33.46,422.84,14.94,359.87c-24.39-82.81,24.3-137,56.57-169.68S127.41,55.74,243.3,31.54a235.45,235.45,0,0,1,53.8-5.11c41.24,1,86.21,14.55,117.33,42.81q3.51,3.18,6.82,6.59C464.51,120.23,482.89,191.22,475.82,251.07Z" style="fill: rgb(255, 255, 255); opacity: 0.7; transform-origin: 242.816px 257.233px;" class="animable" id="el3zmgucbahr1"></path></g></g><g id="freepik--Circles--inject-7" class="animable" style="transform-origin: 233.885px 253.697px;"><circle cx="156.75" cy="331.15" r="129.98" style="fill: #00FF88; transform-origin: 156.75px 331.15px;" id="el7e5g7i49kub" class="animable"></circle><g id="eljndwnhkgi8d"><circle cx="357.48" cy="207.69" r="35.11" style="fill: #00FF88; transform-origin: 357.48px 207.69px; transform: rotate(-76.34deg);" class="animable" id="elcy9932r6kc"></circle></g><g id="elgx72u3a23fv"><circle cx="289.47" cy="336.52" r="19.11" style="fill: none; stroke: rgb(0, 0, 0); stroke-linecap: round; stroke-linejoin: round; transform-origin: 289.47px 336.52px; transform: rotate(-76.83deg);" class="animable" id="el6qr8j4ruz79"></circle></g><circle cx="126.21" cy="91.82" r="29.67" style="fill: #00FF88; transform-origin: 126.21px 91.82px;" id="elwuez6wkuhop" class="animable"></circle><g id="elbdhm42gt6d"><circle cx="322.73" cy="429.75" r="16.2" style="fill: #00FF88; transform-origin: 322.73px 429.75px; transform: rotate(-45deg);" class="animable" id="ele87e4f9f2sd"></circle></g><circle cx="397.51" cy="341.06" r="59.26" style="fill: none; stroke: rgb(0, 0, 0); stroke-linecap: round; stroke-linejoin: round; transform-origin: 397.51px 341.06px;" id="el27d4jvwbgn8" class="animable"></circle><g id="el0c1xox0tssgc"><circle cx="145.36" cy="67.15" r="17.42" style="fill: none; stroke: rgb(0, 0, 0); stroke-linecap: round; stroke-linejoin: round; transform-origin: 145.36px 67.15px; transform: rotate(-77.03deg);" class="animable" id="el0hbbd6vzdxi4"></circle></g><g id="elzri9djkhgqb"><circle cx="33.76" cy="280.98" r="17.42" style="fill: none; stroke: rgb(0, 0, 0); stroke-linecap: round; stroke-linejoin: round; transform-origin: 33.76px 280.98px; transform: rotate(-22.5deg);" class="animable" id="elh8dmg3nwm27"></circle></g><circle cx="201.43" cy="86.42" r="6.69" style="stroke: rgb(0, 0, 0); stroke-linecap: round; stroke-linejoin: round; transform-origin: 201.43px 86.42px;" id="el58p4zu8g2ex" class="animable"></circle><circle cx="347.82" cy="318.86" r="23.84" style="stroke: rgb(0, 0, 0); stroke-linecap: round; stroke-linejoin: round; transform-origin: 347.82px 318.86px;" id="elusqggwc9pri" class="animable"></circle></g><g id="freepik--Lines--inject-7" class="animable" style="transform-origin: 322.014px 71.575px;"><path d="M290.35,72.84l8.39-27.05A2.45,2.45,0,0,1,302,44.33h0a2.2,2.2,0,0,1,1.17,3Z" style="fill: rgb(38, 50, 56); transform-origin: 296.869px 58.4903px;" id="elidrjm9mgqob" class="animable"></path><path d="M313.93,91.08l31.28-18a2.51,2.51,0,0,1,3.77,1.3h0a3.13,3.13,0,0,1-1.91,3.7Z" style="fill: rgb(38, 50, 56); transform-origin: 331.504px 81.8707px;" id="el880vduvv6do" class="animable"></path><path d="M314.86,106.52l36.09-.94a2.51,2.51,0,0,1,2.69,2.94h0a3.14,3.14,0,0,1-3.44,2.35Z" style="fill: #00FF88; transform-origin: 334.269px 108.233px;" id="elzwjde8o15sp" class="animable"></path><path d="M309.46,65.39l17.3-31.68a2.5,2.5,0,0,1,3.89-.86h0A3.14,3.14,0,0,1,331,37Z" style="fill: #00FF88; transform-origin: 320.542px 48.8225px;" id="elr25rymx16t" class="animable"></path></g><g id="freepik--Character--inject-7" class="animable" style="transform-origin: 177.461px 289px;"><path d="M203.79,500,214,477l17.32,23h67.58c-1.12-4.48-3.6-12.59-9.05-27-10.48-27.69-28.45-52.14-28.45-52.14l-2.23-4.42c-.17-.47-.34-1-.51-1.57-1.5-5-8.48-23.2-12-28.19a23.41,23.41,0,0,0-5.24-5.24l-10-19.71-92.56,34.93L140.6,500Z" style="fill: rgb(38, 50, 56); stroke: rgb(38, 50, 56); stroke-linecap: round; stroke-linejoin: round; transform-origin: 218.88px 430.865px;" id="elv6wpkbv3vxf" class="animable"></path><line x1="215.98" y1="474.48" x2="222.46" y2="457.77" style="fill: none; stroke: rgb(166, 166, 166); stroke-linecap: round; stroke-linejoin: round; transform-origin: 219.22px 466.125px;" id="elp9mhk5zs3s9" class="animable"></line><path d="M221.67,407.08a108.38,108.38,0,0,1,.29,12.76c-.5,10.48-3.74,24.45-1,28" style="fill: none; stroke: rgb(166, 166, 166); stroke-linecap: round; stroke-linejoin: round; transform-origin: 220.952px 427.46px;" id="ellxn1fio3ldp" class="animable"></path><path d="M220.47,395.89s.26,1.75.56,4.47" style="fill: none; stroke: rgb(166, 166, 166); stroke-linecap: round; stroke-linejoin: round; transform-origin: 220.75px 398.125px;" id="els1zrq1xu8s" class="animable"></path><path d="M286.32,487.61a34.21,34.21,0,0,1,1.51,6.83" style="fill: none; stroke: rgb(166, 166, 166); stroke-linecap: round; stroke-linejoin: round; transform-origin: 287.075px 491.025px;" id="elrztdoakz83o" class="animable"></path><path d="M247.16,422.9c4.43,8.86,10.73,19.65,18.22,27.38C275.16,460.4,281.64,474,285,483.65" style="fill: none; stroke: rgb(166, 166, 166); stroke-linecap: round; stroke-linejoin: round; transform-origin: 266.08px 453.275px;" id="el4g08pkyg4w" class="animable"></path><path d="M240.18,407.12s1.81,4.92,5,11.77" style="fill: none; stroke: rgb(166, 166, 166); stroke-linecap: round; stroke-linejoin: round; transform-origin: 242.68px 413.005px;" id="eljw09h40vsgp" class="animable"></path><path d="M182.17,442.19c-1.48,16.83-2.27,33.53-5.85,50.09" style="fill: none; stroke: rgb(166, 166, 166); stroke-linecap: round; stroke-linejoin: round; transform-origin: 179.245px 467.235px;" id="elkfpom6fogg" class="animable"></path><path d="M183.29,430.32s-.2,2-.51,5.28" style="fill: none; stroke: rgb(166, 166, 166); stroke-linecap: round; stroke-linejoin: round; transform-origin: 183.035px 432.96px;" id="el93u9oq6r4tj" class="animable"></path><path d="M144.87,410.11s16.22,2.75,26.95-.25" style="fill: none; stroke: rgb(166, 166, 166); stroke-linecap: round; stroke-linejoin: round; transform-origin: 158.345px 410.561px;" id="elcndejc858zd" class="animable"></path><path d="M149.7,422.19c-1.82,5.44-4.19,12.67-5.83,18.11-3,10-3.74,12.23-3.74,12.23" style="fill: none; stroke: rgb(166, 166, 166); stroke-linecap: round; stroke-linejoin: round; transform-origin: 144.915px 437.36px;" id="elb5ug990zm8m" class="animable"></path><path d="M152.36,414.35s-.58,1.68-1.46,4.3" style="fill: none; stroke: rgb(166, 166, 166); stroke-linecap: round; stroke-linejoin: round; transform-origin: 151.63px 416.5px;" id="elv5c7gafkym" class="animable"></path><path d="M227.7,372.69s1.38,5,2.54,6.2,3.18,1.15,3-1.45-2.07-7.74-2.07-7.74Z" style="fill: rgb(255, 255, 255); stroke: rgb(38, 50, 56); stroke-linecap: round; stroke-linejoin: round; transform-origin: 230.476px 374.673px;" id="eln272yllab8" class="animable"></path><path d="M185.79,395.14l-7.24,2.25s2.73,6.48,5.47,7.06S188.28,400.14,185.79,395.14Z" style="fill: rgb(255, 255, 255); stroke: rgb(38, 50, 56); stroke-linecap: round; stroke-linejoin: round; transform-origin: 182.8px 399.818px;" id="elwvdbhetocdh" class="animable"></path><path d="M99.21,263.41S72,304.08,77.51,313.06s50.89,68.86,50.89,68.86,1.25,13.22,3.25,15,28.44,5,34.93,4,41.91-13,52.64-20.46,14.47-12.22,14-18-27.44-87.07-27.44-87.07,59.87-1.75,70.85-4.49,15.47-9,12.48-14.22-29.44-23.21-34.43-25-27,1-27,1-12.72-5.24-17-6-39.92,3.24-46.91,6.48-22.45,11-22.45,11Z" style="fill: rgb(255, 255, 255); stroke: rgb(38, 50, 56); stroke-linecap: round; stroke-linejoin: round; transform-origin: 183.394px 313.847px;" id="el8o34vohnje" class="animable"></path><polygon points="147.79 365.09 132.79 382.66 140.47 387.79 128.41 381.92 107.95 356.97 147.79 365.09" style="fill: rgb(38, 50, 56); stroke: rgb(38, 50, 56); stroke-linecap: round; stroke-linejoin: round; transform-origin: 127.87px 372.38px;" id="elbmcim6cbm0v" class="animable"></polygon><polyline points="205.58 271.37 215.34 244.98 212.11 268.91 215.49 262.49 223.6 273.98 205.75 275.39 205.58 271.37" style="fill: rgb(38, 50, 56); stroke: rgb(38, 50, 56); stroke-linecap: round; stroke-linejoin: round; transform-origin: 214.59px 260.185px;" id="elnrkiyrvcuu" class="animable"></polyline><line x1="220.5" y1="242.11" x2="216.48" y2="255.88" style="fill: none; stroke: rgb(38, 50, 56); stroke-linecap: round; stroke-linejoin: round; transform-origin: 218.49px 248.995px;" id="eloa5u97hbqgh" class="animable"></line><path d="M112.62,287.44s8.61-.57,17.79,17.22" style="fill: none; stroke: rgb(38, 50, 56); stroke-linecap: round; stroke-linejoin: round; transform-origin: 121.515px 296.049px;" id="elvfofdkor2u9" class="animable"></path><path d="M131,294.9s2.87,7.46,4.59,12.63" style="fill: none; stroke: rgb(38, 50, 56); stroke-linecap: round; stroke-linejoin: round; transform-origin: 133.295px 301.215px;" id="ellzma4a57q1" class="animable"></path><path d="M162,249s11.48,9.76,16.07,18.94" style="fill: none; stroke: rgb(38, 50, 56); stroke-linecap: round; stroke-linejoin: round; transform-origin: 170.035px 258.47px;" id="elztf6qdcg6hd" class="animable"></path><path d="M156.23,250.14s4.59,3.44,7.46,12.05" style="fill: none; stroke: rgb(38, 50, 56); stroke-linecap: round; stroke-linejoin: round; transform-origin: 159.96px 256.165px;" id="elbhm086tzs7k" class="animable"></path><path d="M80.25,298.59a48.54,48.54,0,0,1,24.7-1.5c13.72,2.75,73.6,100.3,73.6,100.3l7.24-2.25s-53.14-83.83-61.88-93.06-25-11.72-31.68-11.47S83,291.85,83,291.85Z" style="fill: rgb(38, 50, 56); stroke: rgb(38, 50, 56); stroke-linecap: round; stroke-linejoin: round; transform-origin: 133.02px 343.992px;" id="el0bjflq2s733r" class="animable"></path><path d="M154.85,238s27.69,16.22,34.68,29.69,38.17,105,38.17,105l3.5-3s-13.73-43.92-25.2-75.35-29.69-51.9-34.43-55.14a34.63,34.63,0,0,0-11.23-4.49Z" style="fill: rgb(38, 50, 56); stroke: rgb(38, 50, 56); stroke-linecap: round; stroke-linejoin: round; transform-origin: 193.025px 303.7px;" id="elftpc6haekol" class="animable"></path><polygon points="135.35 272.49 149.36 275.64 175.61 381.2 154.38 284.57 147.43 268.46 134.62 264.81 135.35 272.49" style="fill: rgb(38, 50, 56); stroke: rgb(38, 50, 56); stroke-linecap: round; stroke-linejoin: round; transform-origin: 155.115px 323.005px;" id="elpm1ychezrwa" class="animable"></polygon><polygon points="136.39 267.9 149.36 275.64 182.04 404.62 201.75 415.35 214.23 387.91 154.1 273.39 146.12 256.43 137.64 255.43 136.39 267.9" style="fill: #00FF88; stroke: rgb(38, 50, 56); stroke-linecap: round; stroke-linejoin: round; transform-origin: 175.31px 335.39px;" id="elb6ncvbz6pql" class="animable"></polygon><polygon points="140.82 259.39 135.65 283.16 96.8 266.21 98.86 252.78 140.82 259.39" style="fill: rgb(255, 255, 255); stroke: rgb(38, 50, 56); stroke-linecap: round; stroke-linejoin: round; transform-origin: 118.81px 267.97px;" id="elzyhje5wck9" class="animable"></polygon><polygon points="142.88 258.57 158.18 264.97 143.09 248.65 142.88 258.57" style="fill: rgb(255, 255, 255); stroke: rgb(38, 50, 56); stroke-linecap: round; stroke-linejoin: round; transform-origin: 150.53px 256.81px;" id="elao1z6ialqo5" class="animable"></polygon><path d="M131.52,187.26s4.54,3.31,6.2,7,1.44,6.2,3.51,7.44,9.51,4.13,10.33,6.61-.82,6.62-.82,6.62,4.54,2.48,5.79,5,3.3,8.89,2.27,10.54,1.86,3.72-.41,9.3-13.23,9.51-13.23,9.51l-2.48,11.36a81.17,81.17,0,0,1-24.18-1.24c-13.23-2.68-19.64-6.61-19.64-6.61l-2.68-7.44S86.67,240,80.88,236,131.52,187.26,131.52,187.26Z" style="fill: rgb(166, 166, 166); stroke: rgb(38, 50, 56); stroke-linecap: round; stroke-linejoin: round; transform-origin: 119.874px 224.147px;" id="elcf85b33xh3" class="animable"></path><polygon points="145.16 249.27 132.19 249.91 142.88 258.57 145.16 249.27" style="fill: rgb(38, 50, 56); stroke: rgb(38, 50, 56); stroke-linecap: round; stroke-linejoin: round; transform-origin: 138.675px 253.92px;" id="elq7339nbogxc" class="animable"></polygon><path d="M136.42,205.39c1,1.61,1.11,3.34.26,3.87s-2.37-.33-3.37-1.94-1.11-3.34-.26-3.87S135.41,203.79,136.42,205.39Z" style="fill: rgb(38, 50, 56); transform-origin: 134.865px 206.355px;" id="eltublly2gqj" class="animable"></path><path d="M150.74,215s-3.66,2.67-6.61.7" style="fill: none; stroke: rgb(38, 50, 56); stroke-linecap: round; stroke-linejoin: round; transform-origin: 147.435px 215.712px;" id="elvmiux9l9tyl" class="animable"></path><path d="M150.16,220.06a17,17,0,0,1,4.32,9.7" style="fill: none; stroke: rgb(38, 50, 56); stroke-linecap: round; stroke-linejoin: round; transform-origin: 152.32px 224.91px;" id="elwm7bj4l0eqr" class="animable"></path><path d="M133.5,195.68S127,197,126.64,206.13" style="fill: none; stroke: rgb(38, 50, 56); stroke-linecap: round; stroke-linejoin: round; stroke-width: 2px; transform-origin: 130.07px 200.905px;" id="elqgwyg6zn4so" class="animable"></path><path d="M145.16,249.27c3.49-.72-1.8-.81,1.65-1.5,3.4-1.55,9-4.58,10.5-8.37,2-5,0-7.14.21-8.73a1.51,1.51,0,0,0-1.23.39c-.73.61-.12,3.67-.73,6.24a14.3,14.3,0,0,1-1.88,4.39c-1.7,1-9.19-7.49-10.21-12.6-.8-4,5.06-10.47,7.65-13.6-.41-.27-.76-.49-1-.64-3.12,2.13-8.6,6.64-10,8.8-2,3.06-3.75,9.87-5.45,11.23s-18.81-3.56-21-7.88-4.85-9.7-4.85-9.7L105,227.39s5.44,13.28,10.21,17S139.12,250.5,145.16,249.27Z" style="fill: gray; transform-origin: 131.603px 232.223px;" id="el41t8e5fgfvj" class="animable"></path><path d="M112.31,213.4s1,9.18.54,12.07-4.4,4.59-6.47,4.59-13.08-2.2-13.08-2.2,0,7.44,3.72,10.74,1.22,5.91-.84,6.74S85,237.19,80.88,236,112.31,213.4,112.31,213.4Z" style="fill: rgb(38, 50, 56); stroke: rgb(38, 50, 56); stroke-linecap: round; stroke-linejoin: round; transform-origin: 96.7593px 229.397px;" id="elk08pfn1dfth" class="animable"></path><path d="M102.24,229.19s-12.19-3.1-14.88,1.86,3.51,10.54,10.33,12.4,12.41-1.86,12.41-5.58" style="fill: rgb(166, 166, 166); stroke: rgb(38, 50, 56); stroke-linecap: round; stroke-linejoin: round; transform-origin: 98.4087px 236.089px;" id="el3al48uu89to" class="animable"></path><path d="M67.45,216s-10.75,17.57-8.68,23.15,7,6.82,19.42,1.45,37.62-26.46,48.78-40.1,16.74-28.31,11.78-35.75-21.91-2.48-32.24,5.58S67.45,216,67.45,216Z" style="fill: rgb(38, 50, 56); stroke: rgb(38, 50, 56); stroke-linecap: round; stroke-linejoin: round; transform-origin: 99.5383px 202.569px;" id="elwnrdxiv3xs7" class="animable"></path><path d="M136.43,175.53c1.34-4.39,1.29-7.8.46-10.38" style="fill: none; stroke: rgb(166, 166, 166); stroke-linecap: round; stroke-linejoin: round; transform-origin: 136.956px 170.34px;" id="elaw5okfe8l5e" class="animable"></path><path d="M73,237.37c12.93-7.72,46.19-34,54.61-45.56a68.84,68.84,0,0,0,7-11.58" style="fill: none; stroke: rgb(166, 166, 166); stroke-linecap: round; stroke-linejoin: round; transform-origin: 103.805px 208.8px;" id="elnotydad0wxp" class="animable"></path><path d="M60.83,238.31s.42,3.72,8.27,1" style="fill: none; stroke: rgb(166, 166, 166); stroke-linecap: round; stroke-linejoin: round; transform-origin: 64.965px 239.307px;" id="elq3vpl427lem" class="animable"></path><path d="M53.81,181.48s-7.24,11.16-5.58,15.5,26,31.62,28.52,32.24S108.58,210,117.26,200.9s7.85-20.25,6-22.73-30.38-22.94-33.9-23.35-12,1.24-22.11,9.09A41.79,41.79,0,0,0,53.81,181.48Z" style="fill: rgb(38, 50, 56); stroke: rgb(38, 50, 56); stroke-linecap: round; stroke-linejoin: round; transform-origin: 86.224px 191.998px;" id="elae37ootfuz7" class="animable"></path><line x1="67.18" y1="220.74" x2="72.65" y2="226.79" style="fill: none; stroke: rgb(166, 166, 166); stroke-linecap: round; stroke-linejoin: round; transform-origin: 69.915px 223.765px;" id="el4sniqiogrrv" class="animable"></line><path d="M118.8,174.94l8,6.34s.28,8.35-13.25,19.58" style="fill: none; stroke: rgb(166, 166, 166); stroke-linecap: round; stroke-linejoin: round; transform-origin: 120.175px 187.9px;" id="elepq64axgca9" class="animable"></path><line x1="111.54" y1="169.18" x2="114.31" y2="171.32" style="fill: none; stroke: rgb(166, 166, 166); stroke-linecap: round; stroke-linejoin: round; transform-origin: 112.925px 170.25px;" id="el1nid8ln4rd1" class="animable"></line><path d="M76.62,167.18a24.31,24.31,0,0,0,2.81-4.1" style="fill: none; stroke: rgb(166, 166, 166); stroke-linecap: round; stroke-linejoin: round; transform-origin: 78.025px 165.13px;" id="elmxr1rvw8ou" class="animable"></path><path d="M61.25,176.1s-13.44,14.68-8.68,14.68c3.24,0,14.08-11.55,21-19.8" style="fill: none; stroke: rgb(166, 166, 166); stroke-linecap: round; stroke-linejoin: round; transform-origin: 62.5599px 180.88px;" id="eluqo451hakze" class="animable"></path><path d="M260.14,226.49s-7.49-.25-9.48,3.24-1.75,7,.24,9.48,9.24,12.48,16.47,17.22,14.72,11,19.71,7,10.23-6,7.74-14.47-14.59-14.54-24.95-19C262.05,226.65,261.15,227.38,260.14,226.49Z" style="fill: rgb(255, 255, 255); stroke: rgb(38, 50, 56); stroke-linecap: round; stroke-linejoin: round; transform-origin: 272.371px 245.596px;" id="elq68p95jgyb" class="animable"></path><path d="M238.81,212.87l13.59-1.05s5.85,11.29,5.85,13.8-2.51,10.67-1.46,13.8,11.7,11.29,21.53,13,13.17-2.3,13.17-5.23a45.91,45.91,0,0,0-7.32-24.46c-7.1-11.29-13.17-17.77-18.39-25.93s-24-23.42-30.74-28.85-11.5-8.36-12.75-5.44,9.06,10.56,11.64,13.33l2.58,2.77s-4.2.6-5.45-.12-13.16-11.59-15.25-10.12-.84,5-.84,5-4.81-.83-6.48,1.05a3.28,3.28,0,0,0-.21,4s-5.85,0-5.44,2.93,7.95,7.94,10.88,10,15.68,10.66,18,13.79S237.34,212.45,238.81,212.87Z" style="fill: rgb(166, 166, 166); stroke: rgb(38, 50, 56); stroke-linecap: round; stroke-linejoin: round; transform-origin: 247.155px 207.094px;" id="el1v2nq9fbdr7" class="animable"></path><path d="M244.24,196.56s9.62-.42,13.17,5" style="fill: none; stroke: rgb(38, 50, 56); stroke-linecap: round; stroke-linejoin: round; transform-origin: 250.825px 199.056px;" id="elc7ta9if86n8" class="animable"></path><path d="M255,247.53s8.91,15.83,18.55,17.31" style="fill: none; stroke: rgb(38, 50, 56); stroke-linecap: round; stroke-linejoin: round; transform-origin: 264.275px 256.185px;" id="el1gloyd3isgg" class="animable"></path><path d="M256.47,256.18s4.45,7.42,8.16,9.15" style="fill: none; stroke: rgb(38, 50, 56); stroke-linecap: round; stroke-linejoin: round; transform-origin: 260.55px 260.755px;" id="elemn792vou06" class="animable"></path><path d="M168.45,209.66l-11.1,9a3.12,3.12,0,0,0-3.86-1.45c-2.58,1,1.93,8.52,4.18,10s4.18-.8,4-2.41a16.53,16.53,0,0,0-1.13-3.86l8.53-7.08Z" style="fill: rgb(255, 255, 255); stroke: rgb(38, 50, 56); stroke-linecap: round; stroke-linejoin: round; transform-origin: 160.893px 218.674px;" id="elscx7ugc9jcg" class="animable"></path><polygon points="168.44 209.66 160.99 215.71 163.02 218.88 169.09 213.84 168.44 209.66" style="fill: #00FF88; stroke: rgb(38, 50, 56); stroke-linecap: round; stroke-linejoin: round; transform-origin: 165.04px 214.27px;" id="elgq1hzmh8ej5" class="animable"></polygon><path d="M278.93,78A37.93,37.93,0,0,1,275.29,96c-4.48,9.8-104.75,101.66-107.83,107.26s4.48,22.13,12,28.85a16,16,0,0,0,19,2c3.36-2,73.66-57.41,75.62-64.7s-1.4-18.2-8.12-23.52-14.29-3.64-17.09-2c-.64.38-5.07,4-11.52,9.3L234.33,150c8.78-7.29,14.91-12.35,14.91-12.35s32.49-23.81,41.17-26.05a34.93,34.93,0,0,1,16.53,0ZM184.05,230.89c-6.6-3.38-11.58-18.82-11.58-18.82s14.77-12.46,31.41-26.43L219.14,204l3.75-3.12-15.28-18.37,2.95-2.48,15.8,19,3.75-3.12-15.81-19,1.49-1.24,15.31,18.42,3.75-3.12-.07-.1a6.08,6.08,0,0,0,3.58,1.15,6.25,6.25,0,0,0,4.08-1.52l12.69-11.22,2.25,2.24-54.19,44.4S190.64,234.27,184.05,230.89Zm68-54.11-4.7-4.71,7.31-6.11a3.19,3.19,0,0,1,4.37.27,3.17,3.17,0,0,1-.27,4.61Zm-7-2.82,4.76,4.76-10,8.82a2.28,2.28,0,0,1-3.13-.12L223.2,171.18l2.05-2,6.34,6.85a7.48,7.48,0,0,0,10.28.66Zm-26.82-.39,13.91,15.82m17.49-41.82c3.38-2.25,8.21-1.77,13.19,1.77s7.56,10.62,8.21,15.12-4.67,9.65-4.67,9.65l-6.75,5.53-2.32-2.32,4-3.53A7.09,7.09,0,0,0,252.16,163l-12.79,10.68a3.58,3.58,0,0,1-4.91-.31l-7-7.51C239.25,156,248.53,148.34,249.67,147.57ZM235.18,155c-22.34,18.46-63.8,53.24-63.8,53.24s-1.12-2.24,1.4-5.88c1.74-2.5,37.28-32.19,59.29-50.46Z" style="fill: #00FF88; stroke: rgb(38, 50, 56); stroke-linecap: round; stroke-linejoin: round; transform-origin: 236.847px 157.173px;" id="elgo7gwbs42" class="animable"></path><path d="M205.39,169.29s70.35-67.53,72.9-71.11,4.1-11.51,4.1-11.51L288,94.34s-2.3,2.81-3.58,4.35a19.13,19.13,0,0,1-3.07,2.81Z" style="fill: rgb(38, 50, 56); transform-origin: 246.695px 127.98px;" id="elqf00nfudx6i" class="animable"></path><path d="M271.39,119.67s16.62-10.49,19.18-11.26,9.21.26,9.21.26l-7.72-6Z" style="fill: rgb(38, 50, 56); transform-origin: 285.585px 111.17px;" id="elnbp9apdww7h" class="animable"></path><path d="M237,193.57a2.71,2.71,0,1,1-2.7-2.7A2.7,2.7,0,0,1,237,193.57Z" style="fill: rgb(255, 255, 255); stroke: rgb(38, 50, 56); stroke-linecap: round; stroke-linejoin: round; transform-origin: 234.29px 193.58px;" id="el0bvkds7kyy2" class="animable"></path><path d="M231.4,197.47a2.71,2.71,0,1,1-2.71-2.71A2.71,2.71,0,0,1,231.4,197.47Z" style="fill: rgb(255, 255, 255); stroke: rgb(38, 50, 56); stroke-linecap: round; stroke-linejoin: round; transform-origin: 228.69px 197.47px;" id="el5jdmxs4rvhr" class="animable"></path><path d="M224,202.67a2.71,2.71,0,1,1-2.71-2.71A2.7,2.7,0,0,1,224,202.67Z" style="fill: rgb(255, 255, 255); stroke: rgb(38, 50, 56); stroke-linecap: round; stroke-linejoin: round; transform-origin: 221.29px 202.67px;" id="elp77wfboocj" class="animable"></path><path d="M220.12,173.23a2.71,2.71,0,1,1-2.7-2.71A2.7,2.7,0,0,1,220.12,173.23Z" style="fill: rgb(255, 255, 255); stroke: rgb(38, 50, 56); stroke-linecap: round; stroke-linejoin: round; transform-origin: 217.41px 173.23px;" id="eldp4q7riq0qs" class="animable"></path><path d="M214.57,177.13a2.71,2.71,0,1,1-2.71-2.71A2.71,2.71,0,0,1,214.57,177.13Z" style="fill: rgb(255, 255, 255); stroke: rgb(38, 50, 56); stroke-linecap: round; stroke-linejoin: round; transform-origin: 211.86px 177.13px;" id="eldcjz5f918q" class="animable"></path><path d="M207.12,182.32a2.71,2.71,0,1,1-2.71-2.71A2.71,2.71,0,0,1,207.12,182.32Z" style="fill: rgb(255, 255, 255); stroke: rgb(38, 50, 56); stroke-linecap: round; stroke-linejoin: round; transform-origin: 204.41px 182.32px;" id="elmf3lab3runn" class="animable"></path><path d="M240.69,208.48c-.84-2.72-4.6-7.32-8.16-7.32a7.62,7.62,0,0,0-5.64,2.72s3.76,4.81,5.22,6.48,5.44,3.14,6.7,2.51l6.06-1.25" style="fill: rgb(166, 166, 166); stroke: rgb(38, 50, 56); stroke-linecap: round; stroke-linejoin: round; transform-origin: 235.88px 207.089px;" id="elcjy5qun670b" class="animable"></path><path d="M163,329.39S177.32,291.55,180,272s3-28.94,3-28.94-7.17-17.56-7.17-18.3-2-27.21-2-28.19,7.17-14.35,8.9-14.1l1.73.24h0s6.43-8.9,7.67-9.39,5.69-1.24,6.68,1,.49,9.15.49,10.63-1.23,10.14-1.23,10.14l1.23,11.13s4.7-8.66,5.69-13.11,1.24-10.63,3.22-8.9,2.72,7.42,1.73,9.89-3,13.36-3,13.36A131.84,131.84,0,0,1,208.73,229,122.71,122.71,0,0,1,206,249.75s.74,27.46.5,49.47-5.94,47-6.43,50.95-4.46,11.13-4.46,11.13Z" style="fill: rgb(166, 166, 166); stroke: rgb(38, 50, 56); stroke-linecap: round; stroke-linejoin: round; transform-origin: 186.689px 267.047px;" id="elake1qjnb19d" class="animable"></path><path d="M184.49,182.72S180.13,195,180.13,196s2,8.87,2,8.87" style="fill: none; stroke: rgb(38, 50, 56); stroke-linecap: round; stroke-linejoin: round; transform-origin: 182.31px 193.795px;" id="eliy3vz0wu39" class="animable"></path><path d="M194.32,173.17s-2.73,9.42-3.82,13.1a47.21,47.21,0,0,0-1.64,10.78,59.53,59.53,0,0,0,1,7.1" style="fill: none; stroke: rgb(38, 50, 56); stroke-linecap: round; stroke-linejoin: round; transform-origin: 191.59px 188.66px;" id="eleiblmk3b7g" class="animable"></path><path d="M79.75,304.33S75,316.05,79.5,324.79,94.47,350.48,108,357s51.39,16.22,70.1,15.72,20-6.49,20.21-13.22-27.19-28-31.93-32.69-12-1.49-12-1.49a7.35,7.35,0,0,0-3.74-6.49c-4-2.25-25.45-8.23-26.2-8.73s-6.23-7.49-14.72-9.48" style="fill: rgb(255, 255, 255); stroke: rgb(38, 50, 56); stroke-linecap: round; stroke-linejoin: round; transform-origin: 137.937px 336.679px;" id="el2vqp186a3ax" class="animable"></path><path d="M154.35,325.29s-5,5.77-3.11,9.8,26,33.47,30.37,36,14.56.93,16.42-5.89,0-8.68-.93-10.54-29.75-30.68-33.16-31.3S157.16,321.68,154.35,325.29Z" style="fill: rgb(255, 255, 255); stroke: rgb(38, 50, 56); stroke-linecap: round; stroke-linejoin: round; transform-origin: 174.82px 347.472px;" id="el4l29cbqr8qt" class="animable"></path><path d="M142.13,332.77s1,14.47,13,22.45" style="fill: none; stroke: rgb(38, 50, 56); stroke-linecap: round; stroke-linejoin: round; transform-origin: 148.63px 343.995px;" id="el4pb1aozxj8r" class="animable"></path></g><defs>     <filter id="active" height="200%">         <feMorphology in="SourceAlpha" result="DILATED" operator="dilate" radius="2"></feMorphology>                <feFlood flood-color="#32DFEC" flood-opacity="1" result="PINK"></feFlood>        <feComposite in="PINK" in2="DILATED" operator="in" result="OUTLINE"></feComposite>        <feMerge>            <feMergeNode in="OUTLINE"></feMergeNode>            <feMergeNode in="SourceGraphic"></feMergeNode>        </feMerge>    </filter>    <filter id="hover" height="200%">        <feMorphology in="SourceAlpha" result="DILATED" operator="dilate" radius="2"></feMorphology>                <feFlood flood-color="#ff0000" flood-opacity="0.5" result="PINK"></feFlood>        <feComposite in="PINK" in2="DILATED" operator="in" result="OUTLINE"></feComposite>        <feMerge>            <feMergeNode in="OUTLINE"></feMergeNode>            <feMergeNode in="SourceGraphic"></feMergeNode>        </feMerge>            <feColorMatrix type="matrix" values="0   0   0   0   0                0   1   0   0   0                0   0   0   0   0                0   0   0   1   0 "></feColorMatrix>    </filter></defs></svg>